<svg id="Capa_1" data-name="Capa 1" xmlns="http://www.w3.org/2000/svg" viewBox="0 0 1920 1080"><defs><style>.cls-1{fill:#b3b3b3;}.cls-2{fill:#1d1d1d;}</style></defs><title>aphex_logo</title><rect class="cls-1" width="1920" height="1080"/><polygon class="cls-2" points="1801.18 873.64 1520.96 435.84 1517.97 431.7 1514.53 428.02 1510.62 424.81 1506.49 421.82 1501.89 419.53 1497.29 417.93 1492.25 416.54 1487.19 416.08 1482.14 416.08 1477.09 416.54 1472.26 417.7 1467.44 419.3 1463.07 421.59 1458.71 424.35 1454.81 427.56 1451.35 431.47 1448.37 435.38 1445.85 439.74 1444 444.33 1442.39 449.39 1441.71 454.22 1441.49 459.27 1441.71 464.32 1452.05 547.71 1452.5 553.43 1452.05 559.18 1451.35 564.92 1449.75 570.67 1447.68 575.96 1444.93 581.23 1441.71 586.06 1438.03 590.43 1433.91 594.33 1429.31 598 1424.25 600.99 1418.97 603.28 1413.46 605.12 1407.71 606.5 1401.97 606.95 1383.37 607.88 1376.93 608.56 1370.73 609.71 1364.53 611.78 1358.79 614.31 1353.05 617.53 1347.77 621.2 1342.95 625.57 1338.58 630.16 1215.23 779.47 1211.78 783.13 1208.11 786.34 1203.98 788.88 1199.38 791.17 1194.79 792.55 1189.97 793.7 1185.14 793.93 1180.32 793.7 1175.5 793.02 1170.67 791.64 1166.08 789.56 1161.95 787.04 1158.04 784.06 1154.59 780.61 1151.61 776.71 1149.08 772.57 1147.01 767.97 1145.63 763.39 1144.71 758.56 1144.48 753.74 1144.94 748.68 1145.86 743.86 1147.47 739.27 1149.54 734.9 1379.01 319.61 1380.84 315.48 1382.22 311.11 1382.91 306.75 1383.14 302.15 1382.67 297.79 1381.54 293.43 1379.92 289.07 1377.63 285.16 1375.09 281.71 1371.88 278.5 1368.22 275.74 1364.3 273.44 1360.16 271.61 1355.8 270.69 1351.44 270 1346.84 270.23 1342.48 270.92 1338.12 272.06 1333.99 273.9 1330.08 276.43 1326.64 279.19 1269.44 333.62 1263.92 338.45 1257.96 343.04 1251.53 346.94 1244.86 350.16 1237.98 352.91 1231.08 355.21 1223.73 356.59 1216.38 357.51 1208.8 357.98 1065.69 357.98 1058.59 357.75 1051.46 356.83 1044.57 355.45 1037.91 353.38 1031.24 350.85 1024.82 347.86 1018.61 344.42 1012.87 340.29 1007.35 335.92 1002.3 330.87 997.48 325.58 993.34 319.83 989.44 313.87 986.22 307.66 983.46 301.23 981.17 294.58 979.56 287.69 978.41 280.57 977.73 273.44 977.73 266.55 978.41 259.43 979.56 252.54 981.17 245.65 983.46 238.76 986.22 232.33 989.44 226.13 993.34 220.16 997.48 214.41 1002.3 209.13 1007.35 204.3 1012.87 199.71 1018.61 195.8 1024.82 192.13 1031.24 189.15 1037.91 186.62 1044.57 184.78 1051.46 183.18 1058.59 182.48 1065.69 182.03 1584.81 182.03 1592.39 182.48 1599.98 183.4 1607.32 185.01 1614.44 187.31 1621.56 190.06 1628.23 193.51 1634.66 197.41 1640.62 202 1646.14 207.07 1651.42 212.57 1656 218.31 1660.15 224.75 1663.82 231.41 1666.81 238.3 1895.13 826.09 1896.96 831.37 1898.11 836.65 1898.57 842.17 1898.57 847.91 1898.11 853.43 1896.96 858.71 1895.13 863.99 1893.06 869.04 1890.3 873.87 1886.86 878.46 1883.18 882.59 1879.05 886.27 1874.68 889.48 1869.86 892.24 1864.81 894.54 1859.52 896.37 1854.02 897.53 1848.5 897.98 1842.98 897.98 1837.48 897.29 1831.97 896.15 1826.68 894.54 1821.63 892.24 1816.81 889.48 1812.21 886.04 1808.3 882.36 1804.64 878.23 1801.18 873.64 1801.18 873.64"/><path class="cls-2" d="M1491.05,1146.67c-335.25,0-607-271.78-607-607s271.77-607,607-607,607,271.76,607,607-271.77,607-607,607Zm0-1299.67C1108.47-153,798.4,157.08,798.4,539.65s310.07,692.65,692.65,692.65,692.64-310.12,692.64-692.65S1873.59-153,1491.05-153Z"/></svg>