<svg id="Capa_1" data-name="Capa 1" xmlns="http://www.w3.org/2000/svg" viewBox="0 0 550.26 317.01"><defs><style>.cls-1,.cls-2,.cls-4,.cls-5,.cls-7{stroke:#fff;stroke-miterlimit:10;}.cls-1{stroke-width:2px;}.cls-2{stroke-width:0.5px;}.cls-3,.cls-7{fill:#fff;}.cls-5{fill:#f7931e;}.cls-6{fill:#ed1e79;}</style></defs><title>halica_logo</title><circle class="cls-1" cx="60.08" cy="171.23" r="53.28"/><circle class="cls-2" cx="60.11" cy="171.09" r="42.71"/><circle class="cls-2" cx="59.95" cy="171.18" r="33.83"/><path class="cls-3" d="M121.52,189.59A7.86,7.86,0,0,0,116,187h-.35a8,8,0,0,0-6,2.68,8.09,8.09,0,0,0-6-2.68h0A7.88,7.88,0,0,0,98,189.45a8.41,8.41,0,0,0-1.66,9.09,10.06,10.06,0,0,0,1,1.86l1.29,1.94.07.1a37,37,0,0,0,6,5.9l3.67,2.89a2.13,2.13,0,0,0,1.35.47,2.17,2.17,0,0,0,1.35-.47l3.66-2.89a28.21,28.21,0,0,0,6.1-5.94l1.18-1.62a8.87,8.87,0,0,0,1.52-3.38,10.18,10.18,0,0,0,.22-2.13A8.23,8.23,0,0,0,121.52,189.59Z" transform="translate(-49.64 -28.17)"/><path class="cls-1" d="M222,117.38a52.16,52.16,0,1,0-12.35,72.72A52.16,52.16,0,0,0,222,117.38Zm-32.25,44.67a17.76,17.76,0,1,1,4.2-24.76A17.77,17.77,0,0,1,189.76,162.05Zm.76-34.74a11.92,11.92,0,0,0-5.44-2.19L189,102.28a35.24,35.24,0,0,1,16.14,7Z" transform="translate(-49.64 -28.17)"/><circle class="cls-1" cx="129.89" cy="119.39" r="8.19"/><ellipse class="cls-1" cx="300.86" cy="137.33" rx="136.15" ry="136.33"/><circle class="cls-1" cx="300.86" cy="137.33" r="21.4"/><path class="cls-3" d="M407.13,77.91c-10.65-1.14-15.85-2.1-18.54-4.79s-3.65-7.89-4.79-18.54a3.22,3.22,0,0,0-6.4,0c-1.14,10.64-2.1,15.85-4.8,18.54s-7.89,3.65-18.53,4.79a3.22,3.22,0,0,0,0,6.4c10.64,1.14,15.84,2.1,18.53,4.79s3.66,7.9,4.8,18.54a3.22,3.22,0,0,0,6.4,0c1.14-10.64,2.1-15.85,4.79-18.54s7.89-3.65,18.54-4.79a3.22,3.22,0,0,0,0-6.4Z" transform="translate(-49.64 -28.17)"/><path class="cls-3" d="M424.29,109c-5.93-.64-8.82-1.18-10.32-2.67s-2-4.4-2.67-10.33a1.8,1.8,0,0,0-3.57,0c-.63,5.93-1.17,8.83-2.67,10.33s-4.4,2-10.33,2.67a1.79,1.79,0,0,0,0,3.56c5.93.64,8.83,1.17,10.33,2.67s2,4.4,2.67,10.33a1.79,1.79,0,0,0,3.57,0c.63-5.93,1.17-8.83,2.67-10.33s4.4-2,10.32-2.67a1.79,1.79,0,0,0,0-3.56Z" transform="translate(-49.64 -28.17)"/><path d="M579.6,174a52.16,52.16,0,1,0-12.35,72.73A52.16,52.16,0,0,0,579.6,174ZM547.34,218.7a17.76,17.76,0,1,1,4.21-24.77A17.76,17.76,0,0,1,547.34,218.7Zm.77-34.74a12,12,0,0,0-5.44-2.2l3.87-22.83a35.07,35.07,0,0,1,16.14,7Z" transform="translate(-49.64 -28.17)"/><circle class="cls-4" cx="487.48" cy="176.03" r="8.19"/><path class="cls-3" d="M440.52,306.48c-4.94,0-14.27,0-22.8-4l-1.39,4H320.15a72.53,72.53,0,0,1-12.42-.84l-.32.84H261.3c-5.39,0-16,0-25.07-5.12-9.22,4.46-19.43,5.12-28.43,5.12H185.33c-1.44,0-3.26,0-5.32-.1v.1H49.64l38.9-109.41h44.11l25.18-70.8H279.44l-4.95,13.91h31.26c1.23,0,2.92,0,4.91.14l5-14h74.53L389,129.48h34.48l-3.75,10.7h87.67c5.39,0,19.7,0,28,11.75s3.5,25.48,1.43,31.3l-4.93,13.84h8.87L535.84,211h64.07l-30.13,50.23c3.26,9.21,1.7,19.52-4.36,28.44-7,10.38-18.74,16.83-30.52,16.83Z" transform="translate(-49.64 -28.17)"/><path class="cls-5" d="M440.52,299.48c-9.35,0-19.59-1-26.4-7.79l-2.75,7.79H351.72l.17-.47a84.1,84.1,0,0,1-9.27.47H320.15c-5.59,0-11.5-.36-16.8-2.1l-.79,2.1H261.3c-8.64,0-18-.85-24.77-6.32-7.05,4.46-16.25,6.32-28.73,6.32H185.33a64.11,64.11,0,0,1-13.1-1.11l.11,1.11H59.56l33.92-95.41h44.11l25.18-70.8H269.52l-4.95,13.91h41.18a43.2,43.2,0,0,1,9.59.85l5.25-14.76h59.68l-1.14,3.21h34.52l-3.74,10.7h.22l-.19.53a82.63,82.63,0,0,1,9.77-.53h87.73c4.81,0,16.07,0,22.26,8.78s2.41,19.72.55,24.91L522,204.07h8.86l-5,13.91h61.62l-21.93,36.56h-5.92l3.23,8.31c2.86,7.2,1.67,15.56-3.29,22.87-5.76,8.49-15.24,13.76-24.73,13.76Z" transform="translate(-49.64 -28.17)"/><path class="cls-3" d="M462.62,291.48l-1.12-.83-.33.83H440.52c-8.91,0-17.78-.88-22.27-7.27s-2.62-15.66,1.65-27.51A101.65,101.65,0,0,1,424,246.58c-2.2.16-2.65.91-4,4.57l-14.24,40.33H363l1.53-4.34c-5.61,3.14-12.61,4.34-21.94,4.34H320.15c-8.13,0-16.22-.73-21-5.71L297,291.48H261.3c-8.92,0-17.79-.88-22.28-7.27a13.5,13.5,0,0,1-1.39-2.52c-6.2,7.25-15,9.79-29.83,9.79H185.33c-8.92,0-17.79-.88-22.28-7.27l-.2-.3.71,7.57H119.42l-.79-8.2-2.89,8.2H70.9l28.23-79.41h44.11l25.17-70.8h44.83l-8.35,23.54H205l8.35-23.54h44.84l-8.69,24.44,6.31-10.53h49.94c5.36,0,10.72.49,14.23,3.7l6.26-17.61h42.69l-1.14,3.21h34.59l-3.75,10.7h.16l-1.68,4.7c5.7-3.4,12.88-4.7,22.6-4.7h87.73c6.19,0,12.38.66,15.72,5.39,3.58,5.09,1.65,11.76-.44,17.61l-12.05,33.89h8.86l-5.67,16a20.73,20.73,0,0,1,8.73-2.05h50.83l-12.34,20.56H548l7.48,19.21c1.88,4.74,1,10.4-2.46,15.47-4.23,6.23-11.34,10.26-18.11,10.26Zm45.49-20.56-4.95-12.81-4.55,12.81Zm-212.52,0a75.87,75.87,0,0,1,3.93-14.22,103.89,103.89,0,0,1,4.09-10.16H291.79c-2.5,0-4.31,0-9.32,14.19a67.4,67.4,0,0,0-3,10.19Zm-134.25-3.13c.21-.92.44-1.85.7-2.81l-.92.45ZM133,242.91c.52-1.07,1.08-2.49,1.77-4.36.57-1.7.92-2.91,1.14-3.78h0ZM227.41,226c8.63,0,17.23.87,21.71,7.16a13.7,13.7,0,0,1,1.77,3.47c6.62-7.91,15.37-10.63,29.45-10.63h40l-1.17,3.34c5.25-2.39,11.7-3.34,20-3.34h22.47c8.9,0,17.76.88,22.28,7.25a13.18,13.18,0,0,1,1,1.6c5-6.5,11.78-8.85,22.75-8.85h34.14l-1,2.8c5-2,11.09-2.8,18.74-2.8h12.34l1.88-5.3H459c-9.29,0-16.48-.63-21.37-3.26l-1.22,3.26H400.66c-8.91,0-17.78-.88-22.27-7.27l-.22-.32-2.7,7.59H275.83l0,0v0H257.28c-12.07,0-20.59-1.07-25.13-6.18l-2.2,6.18H185.12l11.77-33.17h-.1L185,220.68h-5.11a16.71,16.71,0,0,1,1.7,10c5.71-3.44,12.95-4.75,22.76-4.75Zm203.9-25.86a48.69,48.69,0,0,1,1.68-5.63c3.54-10,8.35-15.67,15.24-18.75H431.15c-2.5,0-4.31,0-9.32,14.19a68.69,68.69,0,0,0-3,10.19Zm-185.5-24,.73-.35h-.61Z" transform="translate(-49.64 -28.17)"/><path class="cls-6" d="M173,240.54c6.2-18,2.57-22.47-18.83-22.47H103.37l-24,67.41h32.1L119.41,263h3.32l2.14,22.47H157l-2.25-24.08C163.92,258.84,168.53,252.84,173,240.54Zm-32.63,0c-3.43,9.42-6,11.77-12.84,11.77h-4.28l8.34-23.54h4.28C142.74,228.77,143.6,231.13,140.39,240.54ZM226.84,232H204.37c-19.79,0-26.64,5.35-34,26.75-7.71,21.4-4.71,26.75,15,26.75H207.8c19.68,0,26.1-4.07,31.88-20.33H209.19c-3.43,9.41-5.14,11.77-9.42,11.77s-4.39-2.78-.64-13.91h41.19l1.71-4.28C249.52,237.22,246.53,231.87,226.84,232ZM213,254.45h-10.7c3.85-11.13,6-13.91,10.27-13.91S216.89,243.32,213,254.45ZM279,276.92h17.12l-3.21,8.56H261.3c-19.69,0-22.69-5.35-15-26.75,7.49-21.4,14.33-26.75,34-26.75h31.57l-3,8.56H291.79c-6.85,0-9.84,3.64-15,18.19S272.1,276.92,279,276.92ZM361.66,232H339.19c-19.68,0-26.53,5.35-34,26.75-7.7,21.4-4.71,26.75,15,26.75h22.47c19.68,0,26.53-5.35,34.24-26.75C384.34,237.33,381.35,232,361.66,232Zm-15.3,26.75c-5.13,14.55-7.49,18.19-11.77,18.19s-4.06-3.64,1.07-18.19,7.49-18.19,11.77-18.19S351.5,244.18,346.36,258.73Zm79.72-18.19c-6.85,0-9.2,1.71-11.77,8.56l-12.84,36.38h-30l12.84-36.38C389.27,235.4,394,232,407.67,232h25.68l-3,8.56Zm55-22.47L476.15,232H459.57c-19.69,0-26.54,5.35-34,26.75-7.7,21.4-4.7,26.75,15,26.75h16.59l1.71-4.28,5.78,4.28h22.47l24-67.41Zm-20.75,58.85h-2.14c-6.85,0-7.28-3.64-2.14-18.19s8.13-18.19,15-18.19h2.14Zm81.1-30.71,8.46,21.72c2.88,7.28-6,17.55-15,17.55H492l3.21-8.56h14.87c4.28,0,6-2.25,4.6-5.67l-8-20.76c-2.89-7.6,6.42-18.51,15.94-18.51h40.23l-5.13,8.56H546.34C542.17,240.54,540.25,242.79,541.42,246.21ZM180.78,214.68h-32.1l24-67.41h32.1l-8.35,23.54h12.84l8.35-23.54h32.09l-24,67.41h-32.1l11.77-33.17H192.55Zm104.64-38.52-.85,2.14H270.12c-21.4,0-28,3.64-33.17,18.19s-1.07,18.19,20.33,18.19h14.45l1.71-4.28,4.71,4.28h23.54l13.69-38.52c4.28-12,2.36-15-9.63-15H259.21l-5.14,8.56h27.29C286.49,169.74,287.13,171,285.42,176.16Zm-10.48,30H272.8c-6.85,0-7.92-1.92-5.35-9.63,2.78-7.7,5.13-9.63,12-9.63h2.14Zm31.57,8.56,24-67.41h30l-24,67.41Zm83.77-53.5-19,53.5h-30l19-53.5Zm.64-2.14H361l3-8.56h30Zm9.74,55.64h31.56l3.21-8.56H418.32c-6.85,0-7.28-3.64-2.14-18.19s8.13-18.19,15-18.19h51.9c5.13,0,6.1,1.39,4.06,6.42l-.85,2.14H471.81c-21.4,0-28,3.64-33.17,18.19s-1.07,18.19,20.33,18.19h14.45l1.71-4.28,4.71,4.28h23.54l13.69-38.52c4.28-12,2.36-15-9.63-15H419.71c-19.69,0-26.54,5.35-34,26.75C378,209.33,381,214.68,400.66,214.68Zm76-8.56h-2.14c-6.85,0-7.92-1.92-5.35-9.63,2.78-7.7,5.13-9.63,12-9.63h2.14Z" transform="translate(-49.64 -28.17)"/><path class="cls-7" d="M527.8,344.68A28.9,28.9,0,0,1,506.23,335a28.85,28.85,0,0,1-43.12,0,28.85,28.85,0,1,1,0-38.31A28.81,28.81,0,0,1,484.65,287a28.92,28.92,0,0,1,21.57,9.68,28.84,28.84,0,1,1,21.58,48Zm0-34.64a5.8,5.8,0,1,0,4.74,2.45A5.78,5.78,0,0,0,527.77,310Zm-43.11,0a5.81,5.81,0,1,0,4.74,2.45A5.78,5.78,0,0,0,484.66,310Zm-43.12,0a5.81,5.81,0,1,0,4.74,2.45A5.78,5.78,0,0,0,441.54,310Zm92.94-10.52,1.53-1.89c-.37-.18-.74-.34-1.12-.49Zm-43.11,0,1.53-1.89c-.37-.18-.74-.34-1.13-.49Zm-43.12,0,1.53-1.89c-.37-.18-.74-.34-1.12-.49Z" transform="translate(-49.64 -28.17)"/><path class="cls-5" d="M548.85,300.89a25.83,25.83,0,0,0-42.63.71c-.16-.24-.31-.48-.48-.71a25.84,25.84,0,0,0-42.64.72c-.15-.24-.31-.49-.48-.72a25.85,25.85,0,1,0,.49,29.19l.48.72a25.85,25.85,0,0,0,42.64-.71c.15.23.31.47.48.71a25.84,25.84,0,1,0,42.14-29.91ZM446.64,323a8.8,8.8,0,1,1,2.08-12.27A8.81,8.81,0,0,1,446.64,323Zm.38-17.21a5.86,5.86,0,0,0-2.7-1.09l1.93-11.31a17.45,17.45,0,0,1,8,3.47ZM489.76,323a8.8,8.8,0,1,1,2.08-12.27A8.81,8.81,0,0,1,489.76,323Zm.38-17.21a5.86,5.86,0,0,0-2.7-1.09l1.93-11.31a17.45,17.45,0,0,1,8,3.47ZM532.87,323A8.8,8.8,0,1,1,535,310.75,8.81,8.81,0,0,1,532.87,323Zm.38-17.21a5.86,5.86,0,0,0-2.7-1.09l1.93-11.31a17.45,17.45,0,0,1,8,3.47Z" transform="translate(-49.64 -28.17)"/></svg>